<?xml version="1.0" standalone="no"?><!DOCTYPE svg PUBLIC "-//W3C//DTD SVG 1.1//EN" "http://www.w3.org/Graphics/SVG/1.1/DTD/svg11.dtd"><svg t="1663228240498" class="icon" viewBox="0 0 1024 1024" version="1.1" xmlns="http://www.w3.org/2000/svg" p-id="3481" width="300" height="300" xmlns:xlink="http://www.w3.org/1999/xlink"><path d="M513.67514038 643.03009033v191.82211304c0 3.37088013 1.29034424 6.75 3.86444092 9.33233642a13.10778809 13.10778809 0 0 0 9.32739258 3.87680054h97.00653076a13.21737671 13.21737671 0 0 0 13.20419312-13.20831299V579.23303223l-98.63882447 84.90234375-24.76373291-21.10610962zM99.08160401 834.84808349c0 3.37088013 1.29528808 6.76730347 3.87680053 9.33233643a13.10366821 13.10366821 0 0 0 9.33151246 3.87680054h96.98510742a13.09295654 13.09295654 0 0 0 9.32739258-3.87680054 13.14981079 13.14981079 0 0 0 3.87762451-9.33233643v-195.67749023L99.08160401 740.95535278v93.89190675zM306.3359375 569.96166992v264.88641357a13.16711426 13.16711426 0 0 0 3.87680054 9.33233643 13.17535401 13.17535401 0 0 0 9.33233642 3.87680054h97.02713013c3.3914795 0 6.7664795-1.29528808 9.33151245-3.87680054a13.16217041 13.16217041 0 0 0 3.87268067-9.33233643V571.61538696l-61.67779542-52.506958-61.76266479 50.85324096z m414.63555908 264.88641357a13.16217041 13.16217041 0 0 0 13.18771363 13.20913697H831.20776367a13.09295654 13.09295654 0 0 0 9.32821656-3.87680054 13.16711426 13.16711426 0 0 0 3.87680053-9.33233643V400.72634888l-123.43963623 106.28695678v327.83477783z m-21.28326416-658.90118408c-1.73858643 0-3.39642334 1.00854492-4.08361817 2.72570801-0.70861817 1.69985962-0.2496643 3.57687378 0.96569825 4.80871582l92.76223755 91.18432617-250.89367676 216.02966309-170.340271-145.08297729L98.37710571 568.10525513v96.11169433l269.72561646-222.47561645 170.33615112 145.04425048 303.06610108-260.88272094 76.62963867 75.36730957a4.44781494 4.44781494 0 0 0 4.80541992 0.90719604 4.38024902 4.38024902 0 0 0 2.69192505-4.03747558V180.32632446a4.39178467 4.39178467 0 0 0-4.40826416-4.37942505H699.68740844z" p-id="3482"></path></svg>